# xmcd CD database file
#
# Track frame offsets:
#	150
#	13990
#	25262
#	39397
#	54672
#	66292
#	81642
#	98922
#	114575
#	129792
#
# Disc length: 1871 seconds
#
# Revision: 5
# Processed by: cddbd v1.5.1PL0 Copyright (c) Steve Scherf et al.
# Submitted via: CDex 1,1,6,0
#
DISCID=85074d0a
DTITLE=Ricky Van Shelton - Super Hits
DYEAR=1995
DGENRE=Country
TTITLE0=Statue Of A Fool
TTITLE1=I've Cried My Last Tear For You
TTITLE2=I'll Leave This World Loving You
TTITLE3=Life Turned Her That Way
TTITLE4=Don't We All Have The Right
TTITLE5=Crime Of Passion
TTITLE6=Keep It Between The Lines
TTITLE7=I Am A Simple Man
TTITLE8=Somebody Lied
TTITLE9=From A Jack To A King
EXTD=YEAR: 1995
EXTT0=
EXTT1=
EXTT2=
EXTT3=
EXTT4=
EXTT5=
EXTT6=
EXTT7=
EXTT8=
EXTT9=
PLAYORDER=
